<svg width="728" height="78" viewBox="0 0 728 78" fill="none" xmlns="http://www.w3.org/2000/svg">
<path d="M15.6125 52.296L0.1885 37.576L15.6125 22.92H22.9725L7.4845 37.576L22.9725 52.296H15.6125ZM57.0005 0.711998L39.4645 71.88H33.7045L51.1765 0.711998H57.0005ZM66.766 22.92H74.126L89.614 37.576L74.126 52.296H66.766L82.254 37.576L66.766 22.92ZM146.029 16.072V24.84H127.725V34.312H141.421V42.824H127.725V61H116.781V16.072H146.029ZM162.725 31.24C164.005 29.2773 165.605 27.7413 167.525 26.632C169.445 25.48 171.578 24.904 173.925 24.904V36.488H170.917C168.186 36.488 166.138 37.0853 164.773 38.28C163.407 39.432 162.725 41.48 162.725 44.424V61H151.781V25.288H162.725V31.24ZM195.412 61.512C191.913 61.512 188.756 60.7653 185.94 59.272C183.166 57.7787 180.969 55.6453 179.348 52.872C177.769 50.0987 176.98 46.856 176.98 43.144C176.98 39.4747 177.79 36.2533 179.411 33.48C181.033 30.664 183.252 28.5093 186.068 27.016C188.884 25.5227 192.041 24.776 195.54 24.776C199.038 24.776 202.196 25.5227 205.012 27.016C207.828 28.5093 210.046 30.664 211.668 33.48C213.289 36.2533 214.1 39.4747 214.1 43.144C214.1 46.8133 213.268 50.056 211.604 52.872C209.982 55.6453 207.742 57.7787 204.884 59.272C202.068 60.7653 198.91 61.512 195.412 61.512ZM195.412 52.04C197.502 52.04 199.273 51.272 200.724 49.736C202.217 48.2 202.964 46.0027 202.964 43.144C202.964 40.2853 202.238 38.088 200.788 36.552C199.38 35.016 197.63 34.248 195.54 34.248C193.406 34.248 191.636 35.016 190.228 36.552C188.82 38.0453 188.116 40.2427 188.116 43.144C188.116 46.0027 188.798 48.2 190.164 49.736C191.572 51.272 193.321 52.04 195.412 52.04ZM241.666 24.904C245.847 24.904 249.175 26.2693 251.65 29C254.167 31.688 255.426 35.4 255.426 40.136V61H244.546V41.608C244.546 39.2187 243.927 37.3627 242.69 36.04C241.452 34.7173 239.788 34.056 237.698 34.056C235.607 34.056 233.943 34.7173 232.706 36.04C231.468 37.3627 230.85 39.2187 230.85 41.608V61H219.906V25.288H230.85V30.024C231.959 28.4453 233.452 27.208 235.33 26.312C237.207 25.3733 239.319 24.904 241.666 24.904ZM282.935 51.72V61H277.367C273.399 61 270.305 60.04 268.087 58.12C265.868 56.1573 264.759 52.9787 264.759 48.584V34.376H260.407V25.288H264.759V16.584H275.703V25.288H282.871V34.376H275.703V48.712C275.703 49.7787 275.959 50.5467 276.471 51.016C276.983 51.4853 277.836 51.72 279.031 51.72H282.935ZM322.694 42.568C322.694 43.592 322.631 44.6587 322.503 45.768H297.735C297.905 47.9867 298.609 49.6933 299.847 50.888C301.127 52.04 302.684 52.616 304.519 52.616C307.249 52.616 309.148 51.464 310.215 49.16H321.863C321.265 51.5067 320.177 53.6187 318.599 55.496C317.063 57.3733 315.121 58.8453 312.775 59.912C310.428 60.9787 307.804 61.512 304.903 61.512C301.404 61.512 298.289 60.7653 295.559 59.272C292.828 57.7787 290.695 55.6453 289.159 52.872C287.623 50.0987 286.855 46.856 286.855 43.144C286.855 39.432 287.601 36.1893 289.095 33.416C290.631 30.6427 292.764 28.5093 295.495 27.016C298.225 25.5227 301.361 24.776 304.903 24.776C308.359 24.776 311.431 25.5013 314.119 26.952C316.807 28.4027 318.897 30.472 320.391 33.16C321.927 35.848 322.694 38.984 322.694 42.568ZM311.495 39.688C311.495 37.8107 310.855 36.3173 309.575 35.208C308.295 34.0987 306.695 33.544 304.775 33.544C302.94 33.544 301.383 34.0773 300.103 35.144C298.865 36.2107 298.097 37.7253 297.799 39.688H311.495ZM350.228 24.904C354.409 24.904 357.737 26.2693 360.212 29C362.729 31.688 363.988 35.4 363.988 40.136V61H353.108V41.608C353.108 39.2187 352.489 37.3627 351.252 36.04C350.015 34.7173 348.351 34.056 346.26 34.056C344.169 34.056 342.505 34.7173 341.268 36.04C340.031 37.3627 339.412 39.2187 339.412 41.608V61H328.468V25.288H339.412V30.024C340.521 28.4453 342.015 27.208 343.892 26.312C345.769 25.3733 347.881 24.904 350.228 24.904ZM369.417 43.08C369.417 39.4107 370.1 36.1893 371.465 33.416C372.873 30.6427 374.772 28.5093 377.161 27.016C379.55 25.5227 382.217 24.776 385.161 24.776C387.508 24.776 389.641 25.2667 391.561 26.248C393.524 27.2293 395.06 28.552 396.169 30.216V13.64H407.113V61H396.169V55.88C395.145 57.5867 393.673 58.952 391.753 59.976C389.876 61 387.678 61.512 385.161 61.512C382.217 61.512 379.55 60.7653 377.161 59.272C374.772 57.736 372.873 55.5813 371.465 52.808C370.1 49.992 369.417 46.7493 369.417 43.08ZM396.169 43.144C396.169 40.4133 395.401 38.2587 393.865 36.68C392.372 35.1013 390.537 34.312 388.361 34.312C386.185 34.312 384.329 35.1013 382.793 36.68C381.3 38.216 380.553 40.3493 380.553 43.08C380.553 45.8107 381.3 47.9867 382.793 49.608C384.329 51.1867 386.185 51.976 388.361 51.976C390.537 51.976 392.372 51.1867 393.865 49.608C395.401 48.0293 396.169 45.8747 396.169 43.144ZM443.313 61.448C440.369 61.448 437.766 60.936 435.505 59.912C433.286 58.888 431.537 57.4587 430.257 55.624C428.977 53.7893 428.294 51.7413 428.209 49.48H432.945C433.158 51.656 434.118 53.576 435.825 55.24C437.532 56.8613 440.028 57.672 443.313 57.672C446.342 57.672 448.732 56.904 450.481 55.368C452.273 53.7893 453.169 51.8053 453.169 49.416C453.169 47.496 452.678 45.96 451.697 44.808C450.716 43.6133 449.5 42.7387 448.049 42.184C446.598 41.5867 444.593 40.9467 442.033 40.264C439.046 39.4533 436.678 38.664 434.929 37.896C433.18 37.128 431.686 35.9333 430.449 34.312C429.212 32.6907 428.593 30.4933 428.593 27.72C428.593 25.416 429.19 23.368 430.385 21.576C431.58 19.7413 433.265 18.312 435.441 17.288C437.617 16.264 440.113 15.752 442.929 15.752C447.068 15.752 450.396 16.776 452.913 18.824C455.473 20.8293 456.945 23.432 457.329 26.632H452.465C452.166 24.7973 451.164 23.176 449.457 21.768C447.75 20.3173 445.446 19.592 442.545 19.592C439.857 19.592 437.617 20.3173 435.825 21.768C434.033 23.176 433.137 25.1173 433.137 27.592C433.137 29.4693 433.628 30.984 434.609 32.136C435.59 33.288 436.806 34.1627 438.257 34.76C439.75 35.3573 441.756 35.9973 444.273 36.68C447.174 37.4907 449.521 38.3013 451.313 39.112C453.105 39.88 454.62 41.0747 455.857 42.696C457.094 44.3173 457.713 46.4933 457.713 49.224C457.713 51.3147 457.158 53.2987 456.049 55.176C454.94 57.0533 453.297 58.568 451.121 59.72C448.945 60.872 446.342 61.448 443.313 61.448ZM468.61 19.464C467.714 19.464 466.946 19.144 466.306 18.504C465.666 17.864 465.346 17.0747 465.346 16.136C465.346 15.1973 465.666 14.4293 466.306 13.832C466.946 13.192 467.714 12.872 468.61 12.872C469.506 12.872 470.274 13.192 470.914 13.832C471.554 14.4293 471.874 15.1973 471.874 16.136C471.874 17.0747 471.554 17.864 470.914 18.504C470.274 19.144 469.506 19.464 468.61 19.464ZM470.85 26.056V61H466.37V26.056H470.85ZM522.595 25.416C526.691 25.416 530.019 26.7173 532.579 29.32C535.182 31.88 536.483 35.6133 536.483 40.52V61H532.067V41.032C532.067 37.2347 531.15 34.3333 529.315 32.328C527.48 30.3227 524.984 29.32 521.827 29.32C518.542 29.32 515.918 30.408 513.955 32.584C511.992 34.76 511.011 37.9173 511.011 42.056V61H506.595V41.032C506.595 37.2347 505.678 34.3333 503.843 32.328C502.008 30.3227 499.491 29.32 496.291 29.32C493.006 29.32 490.382 30.408 488.419 32.584C486.456 34.76 485.475 37.9173 485.475 42.056V61H480.995V26.056H485.475V32.072C486.584 29.896 488.163 28.2533 490.211 27.144C492.259 25.992 494.542 25.416 497.059 25.416C500.088 25.416 502.734 26.1413 504.995 27.592C507.299 29.0427 508.963 31.176 509.987 33.992C510.926 31.2187 512.526 29.1067 514.787 27.656C517.091 26.1627 519.694 25.416 522.595 25.416ZM550.849 33.736C551.958 31.3893 553.707 29.448 556.097 27.912C558.529 26.3333 561.409 25.544 564.737 25.544C567.894 25.544 570.731 26.2907 573.249 27.784C575.809 29.2347 577.793 31.3253 579.201 34.056C580.651 36.744 581.377 39.88 581.377 43.464C581.377 47.048 580.651 50.2053 579.201 52.936C577.793 55.6667 575.809 57.7787 573.249 59.272C570.731 60.7653 567.894 61.512 564.737 61.512C561.451 61.512 558.593 60.744 556.161 59.208C553.729 57.6293 551.958 55.6667 550.849 53.32V77.512H546.433V26.056H550.849V33.736ZM576.833 43.464C576.833 40.5627 576.257 38.0667 575.104 35.976C573.995 33.8427 572.459 32.2213 570.497 31.112C568.534 30.0027 566.315 29.448 563.841 29.448C561.451 29.448 559.254 30.024 557.249 31.176C555.286 32.328 553.729 33.9707 552.577 36.104C551.425 38.2373 550.849 40.712 550.849 43.528C550.849 46.344 551.425 48.8187 552.577 50.952C553.729 53.0853 555.286 54.728 557.249 55.88C559.254 57.032 561.451 57.608 563.841 57.608C566.315 57.608 568.534 57.0533 570.497 55.944C572.459 54.792 573.995 53.1493 575.104 51.016C576.257 48.84 576.833 46.3227 576.833 43.464ZM594.1 13.64V61H589.62V13.64H594.1ZM606.485 19.464C605.589 19.464 604.821 19.144 604.181 18.504C603.541 17.864 603.221 17.0747 603.221 16.136C603.221 15.1973 603.541 14.4293 604.181 13.832C604.821 13.192 605.589 12.872 606.485 12.872C607.381 12.872 608.149 13.192 608.789 13.832C609.429 14.4293 609.749 15.1973 609.749 16.136C609.749 17.0747 609.429 17.864 608.789 18.504C608.149 19.144 607.381 19.464 606.485 19.464ZM608.725 26.056V61H604.245V26.056H608.725ZM632.63 29.832H624.502V61H620.022V29.832H615.158V26.056H620.022V23.624C620.022 19.8267 620.982 17.032 622.902 15.24C624.865 13.448 628.022 12.552 632.374 12.552V16.392C629.473 16.392 627.425 16.9467 626.23 18.056C625.078 19.1653 624.502 21.0213 624.502 23.624V26.056H632.63V29.832ZM641.923 19.464C641.027 19.464 640.259 19.144 639.619 18.504C638.979 17.864 638.659 17.0747 638.659 16.136C638.659 15.1973 638.979 14.4293 639.619 13.832C640.259 13.192 641.027 12.872 641.923 12.872C642.819 12.872 643.587 13.192 644.227 13.832C644.867 14.4293 645.187 15.1973 645.187 16.136C645.187 17.0747 644.867 17.864 644.227 18.504C643.587 19.144 642.819 19.464 641.923 19.464ZM644.163 26.056V61H639.683V26.056H644.163ZM685.924 41.736C685.924 43.272 685.881 44.4453 685.796 45.256H656.804C656.932 47.9013 657.572 50.1627 658.724 52.04C659.876 53.9173 661.39 55.3467 663.268 56.328C665.145 57.2667 667.193 57.736 669.412 57.736C672.313 57.736 674.745 57.032 676.708 55.624C678.713 54.216 680.036 52.3173 680.676 49.928H685.412C684.558 53.3413 682.724 56.136 679.908 58.312C677.134 60.4453 673.636 61.512 669.412 61.512C666.126 61.512 663.182 60.7867 660.58 59.336C657.977 57.8427 655.929 55.752 654.436 53.064C652.985 50.3333 652.26 47.1547 652.26 43.528C652.26 39.9013 652.985 36.7227 654.436 33.992C655.886 31.2613 657.913 29.1707 660.516 27.72C663.118 26.2693 666.084 25.544 669.412 25.544C672.74 25.544 675.641 26.2693 678.116 27.72C680.633 29.1707 682.553 31.1333 683.876 33.608C685.241 36.04 685.924 38.7493 685.924 41.736ZM681.38 41.608C681.422 39.0053 680.889 36.7867 679.78 34.952C678.713 33.1173 677.241 31.7307 675.364 30.792C673.486 29.8533 671.438 29.384 669.22 29.384C665.892 29.384 663.054 30.4507 660.708 32.584C658.361 34.7173 657.06 37.7253 656.804 41.608H681.38ZM692.072 43.464C692.072 39.88 692.797 36.744 694.248 34.056C695.699 31.3253 697.683 29.2347 700.2 27.784C702.76 26.2907 705.64 25.544 708.84 25.544C711.912 25.544 714.685 26.2907 717.16 27.784C719.635 29.2773 721.448 31.2187 722.6 33.608V13.64H727.08V61H722.6V53.192C721.533 55.624 719.784 57.6293 717.352 59.208C714.92 60.744 712.061 61.512 708.776 61.512C705.576 61.512 702.696 60.7653 700.136 59.272C697.619 57.7787 695.635 55.6667 694.184 52.936C692.776 50.2053 692.072 47.048 692.072 43.464ZM722.6 43.528C722.6 40.712 722.024 38.2373 720.872 36.104C719.72 33.9707 718.141 32.328 716.136 31.176C714.173 30.024 711.997 29.448 709.608 29.448C707.133 29.448 704.915 30.0027 702.952 31.112C700.989 32.2213 699.432 33.8427 698.28 35.976C697.171 38.0667 696.616 40.5627 696.616 43.464C696.616 46.3227 697.171 48.84 698.28 51.016C699.432 53.1493 700.989 54.792 702.952 55.944C704.915 57.0533 707.133 57.608 709.608 57.608C711.997 57.608 714.173 57.032 716.136 55.88C718.141 54.728 719.72 53.0853 720.872 50.952C722.024 48.8187 722.6 46.344 722.6 43.528Z" fill="black"/>
</svg>
